<?xml version="1.0" encoding="UTF-8"?>
<svg xmlns="http://www.w3.org/2000/svg" version="1.1" xmlns:cc="http://creativecommons.org/ns#" xmlns:dc="http://purl.org/dc/elements/1.1/" xmlns:rdf="http://www.w3.org/1999/02/22-rdf-syntax-ns#" viewBox="0 0 500 176.5">
  <defs>
    <style>
      .cls-1 {
        fill: #a22034;
      }

      .cls-2 {
        fill: #52555a;
        fill-rule: evenodd;
      }
    </style>
  </defs>
  <!-- Generator: Adobe Illustrator 28.7.1, SVG Export Plug-In . SVG Version: 1.2.0 Build 142)  -->
  <g>
    <g id="SVGRoot">
      <g>
        <g>
          <g>
            <path class="cls-1" d="M130.3,53h2.6l16.3,35.4h-2.9l-4.5-9.8h-20.7l-4.5,9.8h-2.7l16.3-35.4ZM140.7,76.2l-9.2-20.3-9.3,20.3h18.5Z"/>
            <path class="cls-1" d="M155.3,53.3h14.7c3.6-.2,7.2,1.1,9.9,3.5,1.7,1.7,2.7,4.1,2.7,6.5h0c0,6-4.4,9.3-10.2,10.1l11.5,15h-3.3l-11.1-14.6h-11.5v14.5h-2.6v-35.1ZM169.8,71.5c5.9,0,10.2-3,10.2-8h0c0-4.8-3.7-7.8-10.1-7.8h-12v15.8h11.8Z"/>
            <path class="cls-1" d="M190.3,53.3h14.7c3.6-.2,7.2,1.1,9.9,3.5,1.7,1.7,2.7,4.1,2.7,6.5h0c0,6-4.4,9.3-10.2,10.1l11.5,15h-3.3l-11.2-14.5h-11.5v14.5h-2.6v-35.1ZM204.8,71.5c5.9,0,10.2-3,10.2-8h0c0-4.8-3.7-7.8-10.1-7.8h-12v15.8h11.8Z"/>
            <path class="cls-1" d="M221.3,70.9h0c0-9.7,7.1-18.3,17.7-18.3s17.6,8.5,17.6,18h0c0,9.7-7.1,18.3-17.7,18.3s-17.6-8.5-17.6-18ZM253.9,70.9h0c0-8.8-6.3-15.9-15-15.9s-14.9,7-14.9,15.7h0c0,8.8,6.3,15.9,15,15.9s14.9-7,14.9-15.7h0Z"/>
            <path class="cls-1" d="M260.2,53.3h2.9l11,31.2,10.2-31.3h2l10.2,31.3,11-31.2h2.7l-12.7,35.4h-2.1l-10.2-30.5-10.2,30.5h-2.1l-12.7-35.4Z"/>
            <path class="cls-1" d="M313.4,83.2l1.7-2c3.8,3.6,7.4,5.2,12.6,5.2s8.9-3,8.9-7h0c0-3.8-2-6-9.9-7.6-8.4-1.7-11.8-4.6-11.8-9.9h0c0-5.3,4.8-9.3,11.3-9.3,4.4-.1,8.7,1.4,12,4.3l-1.7,2c-2.9-2.6-6.6-4-10.5-4-5.1,0-8.6,3-8.6,6.6h0c0,3.8,1.9,6.1,10.2,7.8,8.1,1.7,11.5,4.6,11.5,9.7h0c0,5.8-4.9,9.7-11.6,9.7-5.3,0-10.3-2-14.1-5.6h0Z"/>
            <path class="cls-1" d="M355.5,55.7h-12.3v-2.4h27.1v2.4h-12.2v32.7h-2.6v-32.7Z"/>
            <path class="cls-1" d="M377,53.3h14.7c3.6-.2,7.2,1.1,9.9,3.5,1.7,1.7,2.7,4.1,2.7,6.5h0c0,6-4.4,9.3-10.2,10.1l11.5,15h-3.3l-11.2-14.5h-11.5v14.5h-2.6v-35.1ZM391.4,71.5c5.9,0,10.2-3,10.2-8h0c0-4.8-3.7-7.8-10.1-7.8h-12v15.8h11.8Z"/>
            <path class="cls-1" d="M410.7,53.3h25v2.4h-22.4v13.8h20.1v2.4h-20.1v14.1h22.6v2.4h-25.2v-35.1Z"/>
            <path class="cls-1" d="M443.1,53.3h25v2.4h-22.4v13.8h20.1v2.4h-20.1v14.1h22.6v2.4h-25.2v-35.1Z"/>
            <path class="cls-1" d="M485.2,55.7h-12.2v-2.4h27.1v2.4h-12.2v32.7h-2.6v-32.7Z"/>
            <path class="cls-1" d="M208,124.2h0c-.1-7.1,5.5-13,12.6-13.1.1,0,.2,0,.4,0,3.7-.1,7.3,1.3,9.8,3.9l-2.8,3.3c-1.8-1.9-4.4-3.1-7-3.1-4.7,0-8.4,3.9-8.3,8.6,0,0,0,.2,0,.3h0c0,5,3.5,9,8.3,9,2.8,0,5.4-1.2,7.2-3.2l2.8,2.9c-2.6,3-6.3,4.6-10.2,4.5-7,0-12.7-5.6-12.7-12.6,0-.1,0-.3,0-.4h0Z"/>
            <path class="cls-1" d="M251.7,111.3h4.1l11.1,25.3h-4.7l-2.6-6.1h-11.9l-2.6,6.1h-4.6l11.1-25.3ZM258,126.7l-4.4-10.1-4.3,10.1h8.7Z"/>
            <path class="cls-1" d="M275.7,111.5h9.9c5.9,0,9.6,3.3,9.6,8.4h0c0,5.7-4.5,8.7-10.1,8.7h-5v8.1h-4.4v-25.2ZM285.3,124.6c3.3,0,5.4-1.9,5.4-4.5h0c0-3-2.1-4.6-5.4-4.6h-5.1v9.1h5.1Z"/>
            <path class="cls-1" d="M307.2,111.5h4.4v25.2h-4.4v-25.2Z"/>
            <path class="cls-1" d="M331.7,115.6h-8v-4.1h20.4v4.1h-8v21.1h-4.4v-21.1Z"/>
            <path class="cls-1" d="M361.7,111.3h4.1l11.1,25.3h-4.7l-2.6-6.1h-11.9l-2.6,6.1h-4.5l11.1-25.3ZM368,126.7l-4.4-10.1-4.3,10.1h8.7Z"/>
            <path class="cls-1" d="M388.3,111.5h4.4v21.1h13.2v4h-17.7v-25.2Z"/>
          </g>
          <polygon class="cls-1" points="11.5 137.5 22.8 110.8 27.1 101.1 43.2 63.4 56.3 95 64.2 87.5 43.4 39 0 137.5 11.5 137.5"/>
          <polygon class="cls-1" points="63 110.8 74.1 137.5 85.7 137.5 68.7 97.8 60.2 104.3 63 110.8"/>
        </g>
        <path class="cls-2" d="M90.1,92.3l1.1-19.2-22.5,10.5,6.5.6c-8.9,9.2-23,23-36.7,25.6-4.5.8-9.4,0-11.8-2.7,2,2.7,4.6,4.8,7.7,6.2,17.8,9.4,40-11.9,52.4-24.6l3.3,3.8Z"/>
      </g>
    </g>
  </g>
</svg>