<svg id="svg" version="1.1" xmlns="http://www.w3.org/2000/svg" xmlns:xlink="http://www.w3.org/1999/xlink" width="600" height="400" viewBox="0, 0, 400,400"><g id="svgg"><path id="path0" d="M196.100 142.663 C 195.708 142.823,195.600 147.835,195.600 165.833 C 195.600 178.465,195.508 188.800,195.395 188.800 C 194.974 188.800,193.387 187.777,192.757 187.100 C 192.399 186.715,191.902 186.400,191.653 186.400 C 191.404 186.400,191.199 186.265,191.197 186.100 C 191.193 185.741,189.256 184.800,188.520 184.800 C 188.234 184.800,188.000 184.620,188.000 184.400 C 188.000 184.180,187.460 184.000,186.800 184.000 C 186.140 184.000,185.600 183.820,185.600 183.600 C 185.600 183.380,184.700 183.200,183.600 183.200 C 182.500 183.200,181.600 183.020,181.600 182.800 C 181.600 182.555,179.667 182.400,176.600 182.400 C 173.533 182.400,171.600 182.555,171.600 182.800 C 171.600 183.020,170.700 183.200,169.600 183.200 C 168.500 183.200,167.600 183.380,167.600 183.600 C 167.600 183.820,166.970 184.000,166.200 184.000 C 165.430 184.000,164.800 184.180,164.800 184.400 C 164.800 184.620,164.350 184.800,163.800 184.800 C 163.250 184.800,162.800 184.980,162.800 185.200 C 162.800 185.420,162.440 185.600,162.000 185.600 C 161.560 185.600,161.200 185.780,161.200 186.000 C 161.200 186.220,160.840 186.400,160.400 186.400 C 159.960 186.400,159.600 186.580,159.600 186.800 C 159.600 187.020,159.370 187.200,159.088 187.200 C 158.807 187.200,158.317 187.560,158.000 188.000 C 157.683 188.440,157.188 188.800,156.901 188.800 C 156.614 188.800,155.577 189.565,154.598 190.500 C 153.618 191.435,152.408 192.582,151.908 193.048 C 150.689 194.186,149.600 195.540,149.600 195.916 C 149.600 196.085,149.240 196.483,148.800 196.800 C 148.360 197.117,148.000 197.682,148.000 198.055 C 148.000 198.428,147.859 198.793,147.687 198.867 C 147.138 199.100,145.600 202.016,145.600 202.823 C 145.600 203.250,145.420 203.600,145.200 203.600 C 144.980 203.600,144.800 203.960,144.800 204.400 C 144.800 204.840,144.697 205.200,144.571 205.200 C 143.986 205.200,143.200 203.955,143.200 203.029 C 143.200 202.463,143.020 202.000,142.800 202.000 C 142.580 202.000,142.400 201.640,142.400 201.200 C 142.400 200.760,142.265 200.400,142.100 200.399 C 141.935 200.399,141.278 199.399,140.640 198.179 C 140.002 196.958,138.611 195.113,137.548 194.079 C 133.207 189.858,131.994 188.800,131.498 188.800 C 131.211 188.800,130.717 188.440,130.400 188.000 C 130.083 187.560,129.503 187.200,129.112 187.200 C 128.720 187.200,128.400 187.020,128.400 186.800 C 128.400 186.580,128.040 186.400,127.600 186.400 C 127.160 186.400,126.800 186.220,126.800 186.000 C 126.800 185.780,126.440 185.600,126.000 185.600 C 125.560 185.600,125.200 185.420,125.200 185.200 C 125.200 184.980,124.750 184.800,124.200 184.800 C 123.650 184.800,123.200 184.620,123.200 184.400 C 123.200 184.180,122.660 184.000,122.000 184.000 C 121.340 184.000,120.800 183.820,120.800 183.600 C 120.800 183.380,120.080 183.200,119.200 183.200 C 118.320 183.200,117.600 183.020,117.600 182.800 C 117.600 182.563,116.133 182.400,114.000 182.400 C 111.867 182.400,110.400 182.237,110.400 182.000 C 110.400 181.780,109.770 181.600,109.000 181.600 C 108.230 181.600,107.600 181.780,107.600 182.000 C 107.600 182.237,106.133 182.400,104.000 182.400 C 101.867 182.400,100.400 182.563,100.400 182.800 C 100.400 183.020,99.680 183.200,98.800 183.200 C 97.920 183.200,97.200 183.380,97.200 183.600 C 97.200 183.820,96.570 184.000,95.800 184.000 C 95.030 184.000,94.400 184.180,94.400 184.400 C 94.400 184.620,94.051 184.800,93.624 184.800 C 93.197 184.800,92.736 184.980,92.600 185.200 C 92.464 185.420,91.913 185.600,91.376 185.600 C 90.839 185.600,90.400 185.780,90.400 186.000 C 90.400 186.220,90.080 186.400,89.688 186.400 C 89.297 186.400,88.717 186.760,88.400 187.200 C 88.083 187.640,87.503 188.000,87.112 188.000 C 86.720 188.000,86.400 188.180,86.400 188.400 C 86.400 188.620,86.161 188.800,85.869 188.800 C 85.268 188.800,82.596 191.079,79.138 194.541 L 76.800 196.882 76.800 191.641 L 76.800 186.400 61.200 186.400 L 45.600 186.400 45.600 179.800 L 45.600 173.200 62.400 173.200 L 79.200 173.200 79.200 161.000 L 79.200 148.800 48.000 148.800 L 16.800 148.800 16.800 201.200 L 16.800 253.600 31.200 253.600 L 45.600 253.600 45.600 231.600 L 45.600 209.600 58.600 209.600 L 71.600 209.600 71.600 210.776 C 71.600 211.423,71.420 212.064,71.200 212.200 C 70.658 212.535,70.658 226.800,71.200 226.800 C 71.420 226.800,71.600 227.509,71.600 228.376 C 71.600 229.243,71.780 230.064,72.000 230.200 C 72.220 230.336,72.400 230.966,72.400 231.600 C 72.400 232.234,72.580 232.864,72.800 233.000 C 73.020 233.136,73.200 233.597,73.200 234.024 C 73.200 234.451,73.380 234.800,73.600 234.800 C 73.820 234.800,74.000 235.067,74.000 235.394 C 74.000 236.016,76.659 241.246,77.153 241.597 C 77.310 241.709,77.877 242.430,78.414 243.200 C 79.703 245.051,82.662 248.000,83.229 248.000 C 83.477 248.000,84.156 248.495,84.740 249.100 C 85.323 249.705,86.295 250.455,86.900 250.768 C 87.505 251.080,88.000 251.485,88.000 251.668 C 88.000 251.850,88.360 252.000,88.800 252.000 C 89.240 252.000,89.600 252.180,89.600 252.400 C 89.600 252.620,89.960 252.800,90.400 252.800 C 90.840 252.800,91.200 252.980,91.200 253.200 C 91.200 253.420,91.560 253.600,92.000 253.600 C 92.440 253.600,92.800 253.780,92.800 254.000 C 92.800 254.220,93.250 254.400,93.800 254.400 C 94.350 254.400,94.800 254.580,94.800 254.800 C 94.800 255.020,95.329 255.200,95.976 255.200 C 96.623 255.200,97.264 255.380,97.400 255.600 C 97.536 255.820,98.231 256.000,98.944 256.000 C 99.657 256.000,100.411 256.165,100.620 256.368 C 101.763 257.474,117.037 257.474,118.180 256.368 C 118.389 256.165,119.143 256.000,119.856 256.000 C 120.569 256.000,121.264 255.820,121.400 255.600 C 121.536 255.380,122.087 255.200,122.624 255.200 C 123.161 255.200,123.600 255.020,123.600 254.800 C 123.600 254.580,123.960 254.400,124.400 254.400 C 124.840 254.400,125.200 254.220,125.200 254.000 C 125.200 253.780,125.616 253.600,126.125 253.600 C 126.633 253.600,127.436 253.240,127.908 252.800 C 128.380 252.360,129.044 252.000,129.383 252.000 C 129.722 252.000,130.000 251.820,130.000 251.600 C 130.000 251.380,130.243 251.200,130.541 251.200 C 130.838 251.200,131.646 250.660,132.337 250.000 C 133.028 249.340,133.767 248.800,133.979 248.800 C 134.556 248.800,139.127 244.062,139.409 243.171 C 139.544 242.747,139.793 242.400,139.964 242.400 C 140.134 242.400,140.613 241.770,141.028 241.000 C 141.443 240.230,141.921 239.600,142.091 239.600 C 142.261 239.600,142.400 239.240,142.400 238.800 C 142.400 238.360,142.580 238.000,142.800 238.000 C 143.020 238.000,143.200 237.640,143.200 237.200 C 143.200 236.760,143.380 236.400,143.600 236.400 C 143.820 236.400,144.000 236.040,144.000 235.600 C 144.000 234.179,144.663 234.746,145.636 237.000 C 146.158 238.210,146.724 239.200,146.893 239.200 C 147.062 239.200,147.200 239.436,147.200 239.725 C 147.200 240.013,147.560 240.636,148.000 241.108 C 148.440 241.580,148.800 242.166,148.800 242.409 C 148.800 242.653,149.700 243.729,150.800 244.800 C 151.900 245.871,152.800 246.945,152.800 247.187 C 152.800 247.428,153.109 247.744,153.487 247.889 C 153.864 248.033,154.954 248.933,155.908 249.887 C 156.862 250.841,157.780 251.536,157.948 251.432 C 158.117 251.328,158.507 251.593,158.815 252.021 C 159.124 252.450,159.607 252.800,159.888 252.800 C 160.170 252.800,160.400 252.980,160.400 253.200 C 160.400 253.420,160.760 253.600,161.200 253.600 C 161.640 253.600,162.000 253.780,162.000 254.000 C 162.000 254.220,162.360 254.400,162.800 254.400 C 163.240 254.400,163.600 254.536,163.600 254.703 C 163.600 255.069,166.467 256.000,167.594 256.000 C 168.037 256.000,168.400 256.163,168.400 256.363 C 168.400 257.562,182.911 257.558,184.180 256.359 C 184.389 256.162,184.974 256.000,185.480 256.000 C 185.986 256.000,186.400 255.820,186.400 255.600 C 186.400 255.380,186.634 255.200,186.920 255.200 C 187.656 255.200,189.593 254.259,189.597 253.900 C 189.599 253.735,189.777 253.600,189.993 253.600 C 190.209 253.600,190.884 253.161,191.493 252.625 C 192.102 252.088,193.265 251.088,194.078 250.402 L 195.557 249.155 195.678 251.278 L 195.800 253.400 213.600 253.504 L 231.400 253.608 231.300 198.104 L 231.200 142.600 213.900 142.529 C 204.385 142.491,196.375 142.551,196.100 142.663 M112.800 200.000 C 112.800 200.220,113.160 200.400,113.600 200.400 C 114.040 200.400,114.400 200.580,114.400 200.800 C 114.400 201.020,114.675 201.200,115.011 201.200 C 115.849 201.200,118.937 204.356,119.629 205.921 C 119.941 206.624,120.331 207.200,120.498 207.200 C 120.664 207.200,120.800 207.560,120.800 208.000 C 120.800 208.782,120.533 208.800,109.000 208.800 C 97.467 208.800,97.200 208.782,97.200 208.000 C 97.200 207.560,97.336 207.200,97.502 207.200 C 97.669 207.200,98.061 206.615,98.375 205.900 C 99.018 204.434,102.244 201.200,103.064 201.200 C 103.359 201.200,103.600 201.020,103.600 200.800 C 103.600 200.580,103.949 200.400,104.376 200.400 C 104.803 200.400,105.264 200.220,105.400 200.000 C 105.536 199.780,107.257 199.600,109.224 199.600 C 111.341 199.600,112.800 199.763,112.800 200.000 M185.600 203.200 C 185.600 203.420,185.960 203.600,186.400 203.600 C 186.840 203.600,187.200 203.780,187.200 204.000 C 187.200 204.220,187.475 204.400,187.811 204.400 C 188.588 204.400,191.824 207.616,192.183 208.745 C 192.332 209.215,192.622 209.600,192.827 209.600 C 193.032 209.600,193.200 209.960,193.200 210.400 C 193.200 210.840,193.380 211.200,193.600 211.200 C 193.820 211.200,194.000 211.662,194.000 212.226 C 194.000 212.791,194.196 213.619,194.436 214.068 C 195.008 215.136,194.992 225.336,194.418 225.527 C 194.188 225.604,194.003 225.967,194.006 226.333 C 194.025 228.312,190.023 234.000,188.613 234.000 C 188.276 234.000,188.000 234.180,188.000 234.400 C 188.000 234.620,187.640 234.800,187.200 234.800 C 186.760 234.800,186.400 234.980,186.400 235.200 C 186.400 235.420,185.860 235.600,185.200 235.600 C 184.540 235.600,184.000 235.780,184.000 236.000 C 184.000 236.220,183.100 236.400,182.000 236.400 C 180.900 236.400,180.000 236.220,180.000 236.000 C 180.000 235.780,179.460 235.600,178.800 235.600 C 178.140 235.600,177.600 235.420,177.600 235.200 C 177.600 234.980,177.240 234.800,176.800 234.800 C 176.360 234.800,176.000 234.620,176.000 234.400 C 176.000 234.180,175.759 234.000,175.465 234.000 C 174.911 234.000,171.607 230.694,171.591 230.123 C 171.586 229.946,171.230 229.350,170.800 228.800 C 170.370 228.250,170.014 227.485,170.009 227.100 C 170.004 226.715,169.820 226.400,169.600 226.400 C 169.380 226.400,169.200 225.781,169.200 225.024 C 169.200 224.267,169.020 223.536,168.800 223.400 C 168.577 223.262,168.400 221.396,168.400 219.176 C 168.400 216.792,168.560 215.200,168.800 215.200 C 169.020 215.200,169.200 214.671,169.200 214.024 C 169.200 213.377,169.380 212.736,169.600 212.600 C 169.820 212.464,170.000 211.913,170.000 211.376 C 170.000 210.839,170.180 210.400,170.400 210.400 C 170.620 210.400,170.800 210.080,170.800 209.688 C 170.800 209.297,171.160 208.717,171.600 208.400 C 172.040 208.083,172.400 207.650,172.400 207.437 C 172.400 206.893,174.050 205.200,174.581 205.200 C 174.825 205.200,175.283 204.840,175.600 204.400 C 175.939 203.930,176.635 203.600,177.288 203.600 C 177.900 203.600,178.400 203.420,178.400 203.200 C 178.400 202.963,179.867 202.800,182.000 202.800 C 184.133 202.800,185.600 202.963,185.600 203.200 M142.400 226.576 C 142.400 227.333,142.580 228.064,142.800 228.200 C 143.020 228.336,143.200 229.157,143.200 230.024 L 143.200 231.600 131.931 231.600 C 120.343 231.600,119.200 231.752,119.200 233.291 C 119.200 233.758,118.168 234.800,117.704 234.800 C 117.510 234.800,116.993 235.115,116.555 235.500 C 115.430 236.489,114.114 237.200,113.405 237.200 C 113.072 237.200,112.800 237.380,112.800 237.600 C 112.800 237.833,111.467 238.000,109.600 238.000 C 107.733 238.000,106.400 237.833,106.400 237.600 C 106.400 237.380,105.950 237.200,105.400 237.200 C 104.850 237.200,104.400 237.020,104.400 236.800 C 104.400 236.580,104.040 236.400,103.600 236.400 C 103.160 236.400,102.800 236.250,102.800 236.068 C 102.800 235.885,102.305 235.480,101.700 235.168 C 100.301 234.446,99.154 233.299,98.432 231.900 C 98.120 231.295,97.715 230.800,97.532 230.800 C 97.350 230.800,97.200 230.440,97.200 230.000 C 97.200 229.560,97.020 229.200,96.800 229.200 C 96.580 229.200,96.400 228.570,96.400 227.800 C 96.400 227.030,96.220 226.400,96.000 226.400 C 95.780 226.400,95.600 226.130,95.600 225.800 C 95.600 225.274,98.467 225.200,119.000 225.200 L 142.400 225.200 142.400 226.576 " stroke="none" fill="#442c8c" fill-rule="evenodd"></path><path id="path1" d="M231.210 197.100 C 231.209 227.185,231.317 252.205,231.451 252.700 L 231.693 253.600 262.847 253.600 L 294.000 253.600 294.000 243.000 L 294.000 232.400 275.800 232.400 L 257.600 232.400 257.600 218.600 L 257.600 204.800 274.900 204.795 C 284.415 204.792,292.605 204.681,293.100 204.548 L 294.000 204.307 294.000 194.553 L 294.000 184.800 275.800 184.800 L 257.600 184.800 257.600 174.200 L 257.600 163.600 275.800 163.600 L 294.000 163.600 294.000 153.000 L 294.000 142.400 262.606 142.400 L 231.211 142.400 231.210 197.100 M295.600 185.393 C 295.600 186.083,296.694 187.381,300.700 191.443 C 302.295 193.060,303.600 194.547,303.600 194.745 C 303.600 194.944,304.725 196.284,306.100 197.723 C 307.475 199.161,308.916 200.757,309.302 201.269 C 311.182 203.761,313.913 206.775,314.902 207.449 C 315.509 207.862,316.106 208.517,316.230 208.903 C 316.355 209.290,317.973 211.152,319.828 213.040 C 321.683 214.928,323.200 216.687,323.200 216.948 C 323.200 217.210,323.560 217.683,324.000 218.000 C 325.144 218.825,325.001 219.466,323.300 221.131 C 322.475 221.939,321.545 223.095,321.232 223.700 C 320.920 224.305,320.547 224.800,320.404 224.800 C 319.979 224.800,316.686 228.078,315.395 229.785 C 314.738 230.654,313.113 232.483,311.785 233.851 C 310.456 235.218,309.106 236.845,308.785 237.467 C 308.463 238.089,306.805 239.986,305.100 241.682 C 303.395 243.378,302.000 244.867,302.000 244.990 C 302.000 245.114,300.836 246.379,299.413 247.802 C 293.421 253.794,293.099 253.601,309.087 253.596 L 322.200 253.593 323.138 252.405 C 323.654 251.752,324.689 250.548,325.438 249.730 C 326.187 248.913,326.800 248.090,326.800 247.903 C 326.800 247.715,328.060 246.319,329.600 244.800 C 331.140 243.281,332.400 241.941,332.400 241.822 C 332.400 241.703,333.498 240.490,334.841 239.126 C 336.183 237.763,337.552 236.235,337.882 235.731 L 338.483 234.814 340.692 237.107 C 341.907 238.368,343.374 240.029,343.951 240.799 C 344.528 241.568,345.994 243.188,347.210 244.399 C 348.425 245.609,349.863 247.230,350.405 248.000 C 350.947 248.770,352.334 250.345,353.487 251.500 L 355.583 253.600 369.391 253.600 L 383.200 253.600 383.200 252.637 C 383.200 251.970,382.185 250.634,379.900 248.295 C 378.085 246.437,376.060 244.227,375.400 243.383 C 374.740 242.540,373.165 240.793,371.900 239.502 C 370.635 238.211,369.600 237.007,369.600 236.826 C 369.600 236.646,368.295 235.163,366.700 233.531 C 365.105 231.899,363.293 229.893,362.673 229.073 C 361.571 227.616,360.703 226.697,358.759 224.928 C 357.688 223.954,357.305 223.485,356.305 221.926 C 355.926 221.335,355.155 220.391,354.592 219.828 L 353.568 218.805 354.884 217.449 C 357.342 214.917,358.800 213.174,358.800 212.769 C 358.800 212.547,360.240 210.941,362.000 209.200 C 363.760 207.459,365.200 205.941,365.200 205.827 C 365.200 205.713,366.550 204.243,368.200 202.561 C 369.850 200.878,371.200 199.359,371.200 199.184 C 371.200 199.009,371.875 198.143,372.700 197.261 C 376.384 193.320,377.600 191.955,377.600 191.763 C 377.600 191.649,378.680 190.496,380.000 189.200 C 381.693 187.539,382.400 186.543,382.400 185.822 L 382.400 184.800 369.391 184.800 L 356.383 184.800 354.191 186.991 C 352.986 188.197,352.000 189.346,352.000 189.545 C 352.000 189.744,350.740 191.159,349.200 192.690 C 347.660 194.221,346.400 195.597,346.400 195.747 C 346.400 195.898,345.635 196.798,344.700 197.748 C 342.468 200.015,341.521 201.178,340.843 202.487 L 340.285 203.562 339.446 202.481 C 338.985 201.886,337.391 200.194,335.904 198.719 C 334.417 197.245,333.200 195.911,333.200 195.756 C 333.200 195.600,331.400 193.695,329.200 191.522 C 327.000 189.350,325.200 187.390,325.200 187.168 C 325.200 186.946,324.758 186.322,324.218 185.782 L 323.236 184.800 309.418 184.800 C 297.474 184.800,295.600 184.880,295.600 185.393 " stroke="none" fill="#f37324" fill-rule="evenodd"></path></g></svg>