<svg xmlns="http://www.w3.org/2000/svg" viewBox="0 0 143.58 31.37"><defs><style>.a{fill:#00427c;}.b{fill:#00a887;}</style></defs><path class="a" d="M109.07,28.21a5.88,5.88,0,0,0,1.47-5,2.74,2.74,0,0,0-2.35-2.36c-.24,0-.48,0-.72-.09s-.26-.25-.27-.46.09-.4.33-.4c1.2,0,2.4,0,3.6,0,.32,0,.32.29.38.51A9,9,0,0,1,110.43,28a4.33,4.33,0,0,1-.38.47.45.45,0,0,0,.1.72c.55.39,1.12.77,1.68,1.15.2.14.4.27.28.58a.5.5,0,0,1-.57.31,6.73,6.73,0,0,1-2.68-.55,2.14,2.14,0,0,0-1.91,0,8.66,8.66,0,0,1-6.08.23A6,6,0,0,1,97,23.17a4.73,4.73,0,0,1,1.93-2.36c.3-.18.62-.35.91-.51-.17-.64-.39-1.24-.5-1.86a3.86,3.86,0,0,1,2.77-4.54,8.79,8.79,0,0,1,5.39.24.77.77,0,0,1,.61.87c0,1,0,1.92,0,2.88,0,.2,0,.41-.29.44s-.5,0-.6-.27a5.26,5.26,0,0,1-.23-.8,4.44,4.44,0,0,0-.86-1.69,2.79,2.79,0,0,0-3-.87,2.14,2.14,0,0,0-1.49,1.85,4.09,4.09,0,0,0,.47,2.43A38.26,38.26,0,0,0,109.07,28.21ZM100.21,21A5.63,5.63,0,0,0,107,29.64,35.49,35.49,0,0,1,100.21,21Z" transform="translate(-0.05 0)"/><path class="b" d="M46.9,8.87H.71c-.32,0-.64.05-.65-.45s.23-.52.59-.51H92a5.6,5.6,0,0,0,2.31-.45C100,5.06,105.65,2.69,111.34.31a4.64,4.64,0,0,1,.78-.3c.3-.07.41.2.5.41a.34.34,0,0,1-.22.48c-.4.18-.8.34-1.21.51-5.62,2.35-11.25,4.68-16.86,7a5.13,5.13,0,0,1-2.08.43Z" transform="translate(-0.05 0)"/><path class="a" d="M4.81,31H.61c-.3,0-.57,0-.56-.43,0-.25.05-.47.37-.51H.65c.48,0,1.08.21,1.4-.12s.15-1.06.15-1.61q0-6.24,0-12.48c0-1,0-1-1-1H.65c-.38,0-.61-.07-.6-.52s.25-.43.55-.42H.84c2.44,0,4.88,0,7.32,0a9.05,9.05,0,0,1,3.36.73,6.45,6.45,0,0,1,3.9,4.56,12.87,12.87,0,0,1,.05,6.26A6.87,6.87,0,0,1,9,30.92c-1.38.13-2.79,0-4.19,0Zm8-8.5c0-.6,0-1.2,0-1.8a9.07,9.07,0,0,0-.22-1.54c-.45-2-1.29-3.73-4-4.15a21.17,21.17,0,0,0-2.86-.15c-.83,0-.84,0-.84.85,0,3.76,0,7.51,0,11.27,0,.84,0,1.68,0,2.52,0,.41.14.57.56.56.92,0,1.84,0,2.75-.06a4.34,4.34,0,0,0,4.16-3.36A12.59,12.59,0,0,0,12.8,22.5Z" transform="translate(-0.05 0)"/><path class="a" d="M55,20.34a5,5,0,0,1,3.46-1.95,3.29,3.29,0,0,1,4,3.5c0,2.36,0,4.72,0,7.08,0,1.05,0,1.05,1,1.16a2.21,2.21,0,0,1,.35,0c.32.08.29.33.28.57a.35.35,0,0,1-.37.38h-1.2c-1.15,0-2.32,0-3.47,0-.35,0-.87.23-.91-.44s.44-.53.82-.55h.24c.55.06.67-.24.66-.72,0-2.6,0-5.2,0-7.8,0-1.86-1.52-2.36-2.92-1.73A3.25,3.25,0,0,0,55.06,23c-.07,2.15,0,4.32,0,6.48,0,.48.12.76.66.7a2.16,2.16,0,0,1,.36,0c.38,0,.72,0,.7.53s-.3.47-.64.47H51.19c-.32,0-.39-.22-.39-.49a.42.42,0,0,1,.4-.49,3.47,3.47,0,0,1,.72,0c.41,0,.57-.18.56-.58,0-.24,0-.48,0-.72V16c0-1.06,0-1.06-1-1.14a2.1,2.1,0,0,1-.36,0c-.25-.05-.28-.24-.28-.45s0-.43.29-.44c1.2,0,2.4,0,3.6,0,.32,0,.35.25.35.5,0,.64,0,1.28,0,1.92Z" transform="translate(-0.05 0)"/><path class="a" d="M22.27,30.05a1.64,1.64,0,0,0,.14-.95c0-4.4,0-8.8,0-13.2,0-1.16.12-1.05-1-1.05h-.6c-.37,0-.61-.06-.6-.51s.24-.44.54-.43h10.8c1.08,0,1-.05,1,.94s0,2,0,3c0,.27.05.58-.38.6s-.5-.22-.56-.5a11.27,11.27,0,0,0-.5-1.59,2.13,2.13,0,0,0-2-1.47c-1.2-.07-2.4,0-3.6,0-.39,0-.45.2-.45.52,0,1.88,0,3.76,0,5.64,0,.43.17.58.57.53.63-.08,1.27-.12,1.9-.24a1.8,1.8,0,0,0,1.62-1.66,1.44,1.44,0,0,1,.06-.47c.1-.28.36-.27.6-.26s.33.19.33.41v5.4a.35.35,0,0,1-.34.4c-.26,0-.49,0-.58-.3,0-.11,0-.24-.07-.36-.28-1.28-.65-1.64-2-1.88-2-.37-2.13-.29-2.13,1.75,0,1.68,0,3.36,0,5,0,.5.12.71.67.69a16.68,16.68,0,0,0,3.45-.28,3.21,3.21,0,0,0,2.63-2.61c.07-.35.14-.7.24-1.05s.35-.25.58-.25.35.15.33.38c-.12,1.43-.24,2.86-.37,4.29,0,.32-.2.47-.55.46-.76,0-1.52,0-2.28,0-2.88,0-5.76,0-8.64,0-.33,0-.87.25-.89-.43s.49-.48.85-.5S21.87,30.05,22.27,30.05Z" transform="translate(-0.05 0)"/><path class="a" d="M84.88,22.62l-1.5,5.26c-.25.88-.54,1.75-.73,2.64s-.73.58-1.22.61-.81,0-1-.64c-.68-3-1.42-6-2.13-8.94-.07-.27-.15-.54-.21-.81-.25-1-.25-1-1.28-1.09a1.17,1.17,0,0,1-.46-.08c-.2-.11-.16-.34-.15-.54s.2-.32.41-.32h5c.3,0,.42.16.41.45s-.08.46-.39.49a4.71,4.71,0,0,0-1.44.1c.64,2.68,1.27,5.35,2,8.3.66-2.3,1.25-4.33,1.84-6.35.08-.27.16-.53.23-.8.32-1.14.33-1.12,1.44-1.11a.84.84,0,0,1,.92.72c.68,2.41,1.38,4.82,2.13,7.44.81-2.8,1.3-5.5,2-8.17a3.15,3.15,0,0,0-1.42-.12c-.39,0-.6-.12-.61-.53s.26-.42.56-.42h3.72c.25,0,.5,0,.49.36s0,.65-.43.56c-1.34-.28-1.41.63-1.62,1.55-.69,3.07-1.44,6.12-2.13,9.19-.13.6-.38.78-1,.77-1,0-1,0-1.22-.74C86.44,27.88,85.7,25.37,84.88,22.62Z" transform="translate(-0.05 0)"/><path class="a" d="M48.82,16.47c0,.4,0,.81,0,1.2s.18.68-.31.77-.61-.15-.7-.58a5.38,5.38,0,0,0-.51-1.33,3.29,3.29,0,0,0-3.21-1.89,2.71,2.71,0,0,0-2.67,1.83,3.1,3.1,0,0,0,1.14,3.42,19.48,19.48,0,0,0,2.72,1.22c.65.3,1.31.58,1.95.9a4.26,4.26,0,0,1,2.42,4.21,4.57,4.57,0,0,1-2.87,4.45,10.06,10.06,0,0,1-7.36,0,.86.86,0,0,1-.58-.82c-.12-1.15-.2-2.3-.3-3.45,0-.27,0-.49.32-.54a.48.48,0,0,1,.61.41,6.88,6.88,0,0,0,1.24,2.55A4.1,4.1,0,0,0,45,30.2a2.44,2.44,0,0,0,1.93-1.77A3.42,3.42,0,0,0,45,24c-.9-.42-1.83-.77-2.74-1.17a7,7,0,0,1-2-1.24,4.39,4.39,0,0,1,1.61-7.5,10.78,10.78,0,0,1,6.48.17.61.61,0,0,1,.52.68C48.8,15.43,48.82,16,48.82,16.47Z" transform="translate(-0.05 0)"/><path class="a" d="M120,22.29a14.13,14.13,0,0,0,.62,4.74c1,2.74,3.14,3.79,6.13,3a3.88,3.88,0,0,0,2.49-2.56c.18-.44.3-.9.46-1.35s.43-.32.71-.27.24.28.22.47c-.09,1.19-.2,2.38-.27,3.58,0,.53-.45.63-.81.75a12.41,12.41,0,0,1-5.06.63,10.84,10.84,0,0,1-2.46-.43,6.7,6.7,0,0,1-4.62-4.47,12.19,12.19,0,0,1,0-7.87,6.8,6.8,0,0,1,5.81-4.71,14.31,14.31,0,0,1,6.27.34c.85.25.86.26.86,1.13s0,1.76,0,2.64c0,.26,0,.48-.36.51s-.48,0-.57-.29-.14-.46-.24-.68a4.51,4.51,0,0,0-8.21-.35,9.2,9.2,0,0,0-.88,3.2C120,21,120,21.72,120,22.29Z" transform="translate(-0.05 0)"/><path class="a" d="M72.88,29.62c-1.38,1.78-3.14,1.94-5,1.53a3.1,3.1,0,0,1-2.51-2.83A3.05,3.05,0,0,1,67,25a24.37,24.37,0,0,1,4.15-1.47c1.29-.44,1.3-.41,1.29-1.76v-.36a2.06,2.06,0,0,0-3-2,1.81,1.81,0,0,0-1.14,1.69c-.07.6,0,1.22-.79,1.37a1.69,1.69,0,0,1-1.71-.6A1.91,1.91,0,0,1,65.94,20a3.13,3.13,0,0,1,1.41-1.07,8.2,8.2,0,0,1,5-.27,2.92,2.92,0,0,1,2.52,3.26c0,1.56,0,3.12,0,4.67A13.76,13.76,0,0,0,75,28a2.53,2.53,0,0,0,1.08,2,.69.69,0,0,1,.35.8c-.1.46-.5.32-.79.33A2.66,2.66,0,0,1,72.88,29.62Zm-.52-5.38c-.89.3-1.64.57-2.4.81a2.6,2.6,0,0,0-1.87,2.62A2.23,2.23,0,0,0,69.42,30a2.12,2.12,0,0,0,2.92-1.92C72.43,26.84,72.36,25.6,72.36,24.24Z" transform="translate(-0.05 0)"/><path class="a" d="M143.6,24.65a9,9,0,0,1-.27,3.11,4.54,4.54,0,0,1-3.78,3.4,9.35,9.35,0,0,1-3.21,0A4.42,4.42,0,0,1,132.62,28a10.23,10.23,0,0,1,0-6.24,4.49,4.49,0,0,1,4.35-3.32,10.46,10.46,0,0,1,2.74.08c2.31.53,3.58,1.94,3.92,4.8A9.36,9.36,0,0,1,143.6,24.65Zm-2.61.17a9.1,9.1,0,0,0-.52-3.61,2.56,2.56,0,0,0-3-1.82c-1.27.13-1.81,1-2.23,2.06a8.23,8.23,0,0,0-.43,2.69,10,10,0,0,0,.58,4.46,2.44,2.44,0,0,0,1.86,1.67,2.58,2.58,0,0,0,3.21-1.79A9.21,9.21,0,0,0,141,24.82Z" transform="translate(-0.05 0)"/><path class="b" d="M129.1,8.84H115.55c-.31,0-.41-.18-.41-.46s.09-.46.4-.47h27a.32.32,0,0,1,.34.38c0,.25,0,.5-.33.53H129.1Z" transform="translate(-0.05 0)"/></svg>