<svg xmlns="http://www.w3.org/2000/svg" viewBox="0 0 624 123.48"><defs><style>.cls-1{isolation:isolate;}.cls-10,.cls-2{fill:#1d5661;}.cls-2{mix-blend-mode:multiply;}.cls-3{fill:#0f4a54;}.cls-4{fill:#ffcb5b;}.cls-5{fill:#edb742;}.cls-6{fill:#55bc7c;}.cls-7{fill:#339e5c;}.cls-8{fill:#5bb8a6;}.cls-9{fill:#36a38d;}</style></defs><title>Asset 1</title><g class="cls-1"><g id="Layer_2" data-name="Layer 2"><g id="Layer_1-2" data-name="Layer 1"><path class="cls-2" d="M30.31,0h0A30.31,30.31,0,0,1,60.61,30.31V60.61a0,0,0,0,1,0,0H30.31A30.31,30.31,0,0,1,0,30.31v0A30.31,30.31,0,0,1,30.31,0Z" transform="translate(0 60.61) rotate(-90)"/><path class="cls-3" d="M60.61,30.31V0L8.88,51.74A30.31,30.31,0,0,0,60.61,30.31Z"/><path class="cls-4" d="M93.17,0h0a30.31,30.31,0,0,1,30.31,30.31V60.61a0,0,0,0,1,0,0H93.17A30.31,30.31,0,0,1,62.87,30.31v0A30.31,30.31,0,0,1,93.17,0Z"/><path class="cls-5" d="M93.17,60.61h30.31L71.74,8.88A30.31,30.31,0,0,0,93.17,60.61Z"/><path class="cls-6" d="M93.17,62.87h30.31a0,0,0,0,1,0,0V93.17a30.31,30.31,0,0,1-30.31,30.31h0A30.31,30.31,0,0,1,62.87,93.17v0A30.31,30.31,0,0,1,93.17,62.87Z" transform="translate(186.35 186.35) rotate(-180)"/><path class="cls-7" d="M93.17,123.48H62.87L114.6,71.74a30.31,30.31,0,0,1-21.43,51.74Z"/><path class="cls-8" d="M30.31,62.87H60.61a0,0,0,0,1,0,0V93.17a30.31,30.31,0,0,1-30.31,30.31h0A30.31,30.31,0,0,1,0,93.17v0A30.31,30.31,0,0,1,30.31,62.87Z" transform="translate(-62.87 123.48) rotate(-90)"/><path class="cls-9" d="M0,93.17V62.87L51.74,114.6A30.31,30.31,0,0,1,0,93.17Z"/><path class="cls-10" d="M148,13.27h16V54.51l.27.13a32.14,32.14,0,0,1,21.29-8.25c7,0,13.09,2.28,17.19,6.6,3.83,3.93,5.55,9.13,5.55,18.39v38.83h-16V74.05c0-5.84-.79-8.63-2.64-10.66-2.12-2.41-5-3.43-8.47-3.43-6.47,0-12.95,3.56-17.19,7.87v42.38H148Z"/><path class="cls-10" d="M231.53,17.59a9.78,9.78,0,0,1,9.91,9.51,10,10,0,0,1-20,0A9.82,9.82,0,0,1,231.53,17.59Zm-8.07,30.19h16v62.43h-16Z"/><path class="cls-10" d="M254.93,47.78H270.8v8.76l.26.13A23.05,23.05,0,0,1,290,47.15a17.16,17.16,0,0,1,4.37.51V62.38a21,21,0,0,0-5.29-.64A21.56,21.56,0,0,0,270.93,71v39.21h-16Z"/><path class="cls-10" d="M313.38,83.18c2,10.41,10.58,15.74,21.55,15.74a39.83,39.83,0,0,0,22.22-7.23v14.08c-6.08,3.68-15.34,5.84-23.8,5.84-20.9,0-36.24-13-36.24-32.49,0-19.79,15.48-32.73,33.2-32.73,16.13,0,30.41,10.53,30.41,30.58a43.9,43.9,0,0,1-.4,6.21Zm32.4-10.65c-1.19-9.39-8.33-13.71-15.61-13.71s-14.81,4.32-16.79,13.71Z"/><path class="cls-10" d="M376.19,60.85h-9.78V47.78h9.78V37.13c0-8.38,1.59-15.36,6.35-19.8,4.36-4.06,10.84-5.45,16.79-5.45a33.24,33.24,0,0,1,10.45,1.52V26.34a45.08,45.08,0,0,0-9-1.14c-7.14,0-8.6,4.57-8.6,10.53V47.78h15.87V60.85H392.19v49.36h-16Zm43.9-47.58h16v96.94h-16Z"/><path class="cls-10" d="M482.64,46.39C502.87,46.39,518,60.6,518,79s-15.08,32.61-35.31,32.61S447.33,97.39,447.33,79,462.41,46.39,482.64,46.39Zm0,51.77A19.16,19.16,0,1,0,463.33,79,18.83,18.83,0,0,0,482.64,98.16Z"/><path class="cls-10" d="M519.4,47.78h16.93l8.2,23.86c2.11,6.09,4.1,12.18,6.08,18.65h.26c2-5.84,4.5-12.94,6.62-18.65l8.72-23.86h11.64l8.86,23.86c2.38,6.47,4.63,12.69,6.61,18.65h.27c1.85-6.09,4-12.44,6.08-18.65l8.2-23.86H624l-22.35,62.43H585.92l-8.07-21.7c-2.12-5.71-4.23-11.8-6.08-17.38h-.27c-1.85,5.58-3.83,11.29-6.08,17.38l-7.93,21.7H541.75Z"/></g></g></g></svg>