<?xml version="1.0" encoding="utf-8"?>
<!-- Generator: Adobe Illustrator 25.4.1, SVG Export Plug-In . SVG Version: 6.00 Build 0)  -->
<svg version="1.1"
	 id="Layer_1" xmlns:cc="http://creativecommons.org/ns#" xmlns:dc="http://purl.org/dc/elements/1.1/" xmlns:rdf="http://www.w3.org/1999/02/22-rdf-syntax-ns#"
	 xmlns="http://www.w3.org/2000/svg" xmlns:xlink="http://www.w3.org/1999/xlink" x="0px" y="0px" viewBox="0 0 272.1 190.5"
	 style="enable-background:new 0 0 272.1 190.5;" xml:space="preserve">
<style type="text/css">
	.st0{fill-rule:evenodd;clip-rule:evenodd;fill:#00A1E0;}
	.st1{fill-rule:evenodd;clip-rule:evenodd;fill:#FFFFFE;}
</style>
<desc>A cloud computing company based in San Francisco, California, United States</desc>
<g>
	<path class="st0" d="M113.2,20.6c8.8-9.1,21-14.8,34.5-14.8c18,0,33.6,10,42,24.9c7.5-3.3,15.5-5.1,23.7-5
		c32.4,0,58.7,26.5,58.7,59.2s-26.3,59.2-58.7,59.2c-4,0-7.8-0.4-11.6-1.1c-7.4,13.1-21.4,22-37.4,22c-6.5,0-12.9-1.5-18.8-4.3
		c-7.4,17.5-24.8,29.8-45,29.8c-21.1,0-39-13.3-45.9-32c-3.1,0.6-6.2,1-9.3,1C20.3,159.5,0,138.9,0,113.6c0-17,9.1-31.8,22.7-39.8
		c-2.9-6.6-4.4-13.8-4.4-21C18.3,23.6,42,0,71.2,0C88.3-0.2,103.6,8,113.2,20.6"/>
	<path class="st1" d="M39.6,98.6c-0.2,0.4,0.1,0.5,0.1,0.6c0.5,0.4,1,0.6,1.5,0.9c2.8,1.5,5.4,1.9,8.1,1.9c5.6,0,9.1-3,9.1-7.8v-0.1
		c0-4.4-3.9-6-7.6-7.2l-0.5-0.2c-2.8-0.9-5.2-1.7-5.2-3.5v-0.1c0-1.6,1.4-2.7,3.6-2.7c2.4,0,5.3,0.8,7.1,1.8c0,0,0.5,0.3,0.7-0.2
		c0.1-0.3,1-2.8,1.1-3.1c0.1-0.3-0.1-0.5-0.3-0.6c-2.1-1.3-5-2.2-8-2.2h-0.6c-5.1,0-8.7,3.1-8.7,7.5v0.1c0,4.7,3.9,6.2,7.6,7.2
		l0.6,0.2c2.7,0.8,5,1.5,5,3.4v0.1c0,1.7-1.5,3-3.9,3c-0.9,0-3.9,0-7.2-2.1c-0.4-0.2-0.6-0.4-0.9-0.6c-0.2-0.1-0.6-0.3-0.7,0.3
		L39.6,98.6 M121.3,98.6c-0.2,0.4,0.1,0.5,0.1,0.6c0.5,0.4,1,0.6,1.6,0.9c2.8,1.5,5.4,1.9,8.1,1.9c5.6,0,9.1-3,9.1-7.8v-0.1
		c0-4.4-3.9-6-7.6-7.2l-0.5-0.2c-2.8-0.9-5.2-1.7-5.2-3.5v-0.1c0-1.6,1.4-2.7,3.6-2.7c2.4,0,5.2,0.8,7.1,1.8c0,0,0.5,0.3,0.7-0.2
		c0.1-0.3,1-2.8,1.1-3.1c0.1-0.3-0.1-0.5-0.3-0.6c-2.1-1.3-5-2.2-8-2.2h-0.6c-5.1,0-8.7,3.1-8.7,7.5v0.1c0,4.7,3.9,6.2,7.6,7.2
		l0.6,0.2c2.7,0.8,5,1.5,5,3.4v0.1c0,1.7-1.5,3-3.9,3c-0.9,0-3.9,0-7.2-2.1c-0.4-0.2-0.6-0.4-0.9-0.6c-0.1-0.1-0.6-0.2-0.7,0.3
		L121.3,98.6 M177.1,89.2c0,2.7-0.5,4.8-1.5,6.3s-2.5,2.2-4.5,2.2s-3.6-0.7-4.5-2.2c-1-1.5-1.5-3.6-1.5-6.3s0.5-4.8,1.5-6.3
		s2.4-2.2,4.5-2.2s3.6,0.7,4.5,2.2C176.6,84.4,177.1,86.5,177.1,89.2 M181.7,84.2c-0.5-1.6-1.2-2.9-2.1-4.1c-1-1.1-2.1-2.1-3.6-2.7
		c-1.4-0.7-3.1-1-5-1s-3.6,0.3-5,1s-2.6,1.6-3.6,2.7c-0.9,1.1-1.7,2.5-2.1,4.1c-0.5,1.5-0.7,3.2-0.7,5s0.2,3.5,0.7,5
		c0.5,1.6,1.2,2.9,2.1,4.1c1,1.1,2.2,2.1,3.6,2.7c1.4,0.6,3.1,1,5,1s3.6-0.3,5-1c1.4-0.6,2.6-1.6,3.6-2.7c0.9-1.1,1.7-2.5,2.1-4.1
		c0.5-1.5,0.7-3.2,0.7-5S182.2,85.7,181.7,84.2 M220,97c-0.2-0.5-0.6-0.3-0.6-0.3c-0.7,0.3-1.4,0.5-2.2,0.6s-1.6,0.2-2.6,0.2
		c-2.2,0-4.1-0.7-5.3-2c-1.3-1.3-2-3.5-2-6.4c0-2.6,0.6-4.6,1.8-6.1c1.1-1.5,2.9-2.3,5.2-2.3c1.9,0,3.4,0.2,4.9,0.7
		c0,0,0.4,0.2,0.5-0.3c0.4-1.1,0.7-1.9,1.1-3.2c0.1-0.4-0.2-0.5-0.3-0.5c-0.6-0.2-2-0.6-3.1-0.8c-1-0.2-2.2-0.2-3.5-0.2
		c-2,0-3.7,0.3-5.2,1s-2.8,1.6-3.8,2.7s-1.8,2.5-2.3,4.1c-0.5,1.5-0.8,3.2-0.8,5c0,3.9,1,7,3.1,9.3s5.2,3.5,9.2,3.5
		c2.4,0,4.8-0.5,6.6-1.2c0,0,0.3-0.2,0.2-0.6L220,97 M228.2,86.6c0.2-1.5,0.6-2.7,1.3-3.7c1-1.5,2.4-2.3,4.5-2.3s3.4,0.8,4.4,2.3
		c0.6,1,0.9,2.3,1,3.7H228.2L228.2,86.6z M243.9,83.3c-0.4-1.5-1.4-3-2-3.7c-1-1.1-2-1.9-3-2.3c-1.4-0.6-3-0.9-4.5-0.9
		c-2,0-3.8,0.3-5.2,1s-2.7,1.6-3.6,2.8c-1,1.2-1.7,2.5-2.1,4.1c-0.5,1.6-0.7,3.2-0.7,5s0.2,3.5,0.7,5s1.2,2.9,2.3,4
		c1,1.1,2.4,2,4,2.6s3.5,0.9,5.7,0.9c4.6,0,7-1,7.9-1.6c0.2-0.1,0.3-0.3,0.1-0.8l-1-2.9c-0.2-0.4-0.6-0.3-0.6-0.3
		c-1.1,0.4-2.7,1.2-6.5,1.2c-2.4,0-4.3-0.7-5.4-1.9c-1.2-1.2-1.7-2.8-1.8-5.2H244c0,0,0.4,0,0.5-0.4
		C244.4,89.9,244.9,86.9,243.9,83.3L243.9,83.3z M101.9,86.6c0.2-1.5,0.6-2.7,1.3-3.7c1-1.5,2.4-2.3,4.5-2.3c2.1,0,3.4,0.8,4.4,2.3
		c0.6,1,0.9,2.3,1,3.7H101.9L101.9,86.6z M117.6,83.3c-0.4-1.5-1.4-3-2-3.7c-1-1.1-2-1.9-3-2.3c-1.4-0.6-3-0.9-4.5-0.9
		c-2,0-3.8,0.3-5.2,1s-2.7,1.6-3.6,2.8c-1,1.2-1.7,2.5-2.1,4.1c-0.5,1.6-0.7,3.2-0.7,5s0.2,3.5,0.7,5s1.2,2.9,2.3,4
		c1,1.1,2.4,2,4,2.6c1.6,0.6,3.5,0.9,5.7,0.9c4.6,0,7-1,7.9-1.6c0.2-0.1,0.3-0.3,0.1-0.8l-1-2.9c-0.2-0.4-0.6-0.3-0.6-0.3
		c-1.1,0.4-2.7,1.2-6.5,1.2c-2.4,0-4.3-0.7-5.4-1.9c-1.2-1.2-1.7-2.8-1.8-5.2h15.8c0,0,0.4,0,0.5-0.4
		C118.1,89.9,118.6,86.9,117.6,83.3L117.6,83.3z M67.8,96.9c-0.6-0.5-0.7-0.6-0.9-0.9c-0.3-0.5-0.5-1.2-0.5-2.1
		c0-1.4,0.5-2.4,1.4-3.1c0,0,1.4-1.2,4.6-1.1c1.4,0,2.9,0.1,4.3,0.4v7.2l0,0c0,0-2,0.4-4.3,0.6C69.2,98,67.8,96.9,67.8,96.9
		L67.8,96.9z M74,85.8c-0.6,0-1.5-0.1-2.5-0.1c-1.3,0-2.7,0.2-3.9,0.5c-1.2,0.3-2.3,0.8-3.3,1.5c-1,0.7-1.7,1.6-2.3,2.6
		s-0.8,2.3-0.8,3.6c0,1.4,0.2,2.6,0.7,3.6s1.2,1.8,2.1,2.5c0.9,0.6,2,1.1,3.2,1.4c1.2,0.3,2.6,0.4,4.2,0.4c1.6,0,3.2-0.1,4.8-0.4
		c1.3-0.2,2.7-0.5,4-0.8c0.5-0.1,1.1-0.3,1.1-0.3c0.4-0.1,0.4-0.5,0.4-0.5V85.4c0-3.2-0.8-5.5-2.5-7c-1.7-1.4-4.1-2.2-7.2-2.2
		c-1.2,0-3.1,0.2-4.2,0.4c0,0-3.4,0.7-4.9,1.8c0,0-0.3,0.2-0.1,0.6l1.1,3c0.1,0.4,0.5,0.3,0.5,0.3s0.1,0,0.3-0.1
		c3-1.7,6.9-1.6,6.9-1.6c1.7,0,3,0.3,3.9,1c0.9,0.7,1.3,1.7,1.3,3.8v0.7C75.3,86,74.1,85.8,74,85.8L74,85.8z M201,77.7
		c0.1-0.2,0-0.5-0.2-0.6l0,0c-0.3-0.1-1.6-0.4-2.6-0.4c-2-0.1-3.1,0.2-4.1,0.7c-1,0.4-2.1,1.2-2.7,2v-1.9c0-0.3-0.2-0.5-0.5-0.5h-4
		c-0.3,0-0.5,0.2-0.5,0.5V101c0,0.3,0.2,0.5,0.5,0.5h4.1c0.3,0,0.5-0.2,0.5-0.5V89.2c0-1.6,0.2-3.1,0.5-4.1s0.8-1.8,1.4-2.3
		c0.5-0.5,1.2-0.9,1.9-1.2c0.7-0.2,1.4-0.3,2.1-0.3c0.8,0,1.7,0.2,1.7,0.2c0.3,0,0.5-0.2,0.6-0.4C200.1,80.2,200.9,78,201,77.7"/>
	<path class="st1" d="M162.4,66.8c-0.5-0.2-1-0.3-1.6-0.4c-0.7-0.1-1.4-0.2-2.1-0.2c-2.9,0-5.1,0.8-6.7,2.4c-1.6,1.6-2.6,4-3.2,7.2
		l-0.2,1.1H145c0,0-0.4,0-0.5,0.5l-0.6,3.3c0,0.3,0.1,0.5,0.5,0.5h3.5l-3.5,19.7c-0.3,1.6-0.6,2.9-0.9,3.9c-0.3,1-0.7,1.7-1.1,2.2
		c-0.4,0.5-0.8,0.9-1.4,1.1c-0.5,0.2-1.2,0.3-1.9,0.3c-0.4,0-0.9-0.1-1.3-0.1c-0.4-0.1-0.6-0.2-0.9-0.3c0,0-0.4-0.2-0.6,0.3
		c-0.1,0.3-1.1,2.9-1.2,3.2c-0.1,0.3,0,0.6,0.2,0.6c0.5,0.2,0.8,0.3,1.4,0.4c0.9,0.2,1.6,0.2,2.3,0.2c1.5,0,2.8-0.2,3.9-0.6
		c1.1-0.4,2.1-1.1,2.9-2c0.9-1,1.5-2.1,2.1-3.5c0.5-1.4,1-3.2,1.4-5.3l3.6-20.1h5.2c0,0,0.4,0,0.5-0.5l0.6-3.3
		c0-0.3-0.1-0.5-0.5-0.5h-5c0-0.1,0.3-1.9,0.8-3.6c0.2-0.7,0.7-1.3,1.1-1.7c0.4-0.4,0.8-0.7,1.3-0.8c0.5-0.2,1.1-0.3,1.7-0.2
		c0.5,0,0.9,0.1,1.3,0.1c0.5,0.1,0.7,0.2,0.8,0.2c0.5,0.2,0.6,0,0.7-0.2l1.2-3.3C162.8,67,162.5,66.9,162.4,66.8 M91.9,100.9
		c0,0.3-0.2,0.5-0.5,0.5h-4.2c-0.3,0-0.5-0.2-0.5-0.5V67.2c0-0.3,0.2-0.5,0.5-0.5h4.2c0.3,0,0.5,0.2,0.5,0.5V100.9"/>
</g>
</svg>
